<svg width="1102" height="525" viewBox="0 0 1102 525" fill="none" xmlns="http://www.w3.org/2000/svg">
<path d="M31.1757 0.978638H0.575684V119.979H31.1757V0.978638Z" fill="#E2E2E2"/>
<path d="M262.019 119.979H295.849L234.309 0.978638H192.999L131.629 119.979H165.289L178.039 94.6486H249.269L262.019 119.979ZM189.429 71.8686L213.739 23.5886L237.879 71.8686H189.429Z" fill="#E2E2E2"/>
<path d="M485.403 0.978638H444.093L394.283 84.9586L344.473 0.978638H303.163V119.979H333.763V38.3786L383.233 119.979H405.333L454.803 38.3786V119.979H485.403V0.978638Z" fill="#E2E2E2"/>
<path d="M529.988 194.669V135.339H499.388V194.669C499.388 211.159 494.798 230.369 455.188 230.369C415.578 230.369 410.988 211.329 410.988 194.669V135.339H380.388V194.669C380.388 236.149 402.828 256.039 455.188 256.039C507.378 256.039 529.988 235.979 529.988 194.669Z" fill="#E2E2E2"/>
<path d="M573.351 135.339H542.751V254.339H573.351V135.339Z" fill="#E2E2E2"/>
<path d="M754.888 233.089L730.748 222.719C737.208 216.089 743.328 208.269 748.768 199.429L722.588 189.569C717.148 197.049 710.688 204.189 703.378 210.479C689.608 204.189 678.558 198.749 670.058 194.159C696.918 187.189 712.898 178.009 712.898 161.859C712.898 144.009 690.458 133.639 662.918 133.639C630.108 133.639 612.258 144.009 612.258 163.559C612.258 172.739 615.318 180.389 622.118 188.039C604.438 191.609 586.248 199.769 586.248 221.529C586.248 242.609 603.418 256.039 645.918 256.039C670.398 256.039 691.818 250.599 710.178 239.209C719.868 243.969 730.408 248.899 741.798 254.339L754.888 233.089ZM662.918 155.059C676.008 155.059 683.828 158.629 683.828 165.089C683.828 173.419 669.718 178.519 651.528 182.429C644.218 176.649 641.328 171.719 641.328 166.959C641.328 158.629 649.828 155.059 662.918 155.059ZM647.108 231.729C627.728 231.729 615.318 227.479 615.318 216.769C615.318 208.439 625.348 204.189 637.758 201.129C648.298 208.439 662.238 215.919 680.428 224.929C670.398 229.179 659.348 231.729 647.108 231.729Z" fill="#E2E2E2"/>
<path d="M919.129 194.669V135.339H888.529V194.669C888.529 211.159 883.939 230.369 844.329 230.369C804.719 230.369 800.129 211.329 800.129 194.669V135.339H769.529V194.669C769.529 236.149 791.969 256.039 844.329 256.039C896.519 256.039 919.129 235.979 919.129 194.669Z" fill="#E2E2E2"/>
<path d="M926.208 254.339H968.368L1013.93 213.539L1059.32 254.339H1101.65L1034.67 194.839L1101.65 135.339H1059.32L1013.93 176.139L968.368 135.339H926.208L993.188 194.839L926.208 254.339Z" fill="#E2E2E2"/>
<path d="M86.8375 270.575H0.477539V389.575H86.8375C117.608 389.575 144.638 370.535 144.638 330.075C144.638 289.615 117.608 270.575 86.8375 270.575ZM75.2775 363.905H31.0775V296.245H75.2775C98.3975 296.245 114.038 301.175 114.038 330.075C114.038 358.975 98.3975 363.905 75.2775 363.905Z" fill="#E2E2E2"/>
<path d="M281.502 294.885V270.575H155.702V389.575H281.502V365.265H186.302V341.125H281.502V319.025H186.302V294.885H281.502Z" fill="#E2E2E2"/>
<path d="M290.965 348.605C290.965 382.945 320.035 391.275 368.825 391.275C412.855 391.275 442.945 384.815 442.945 353.025C442.945 322.935 413.875 320.385 366.955 317.835C332.275 315.795 325.135 314.095 325.135 304.915C325.135 296.075 332.275 293.185 362.365 293.185C394.155 293.185 407.245 296.415 407.245 309.505H437.845C437.845 280.095 410.645 268.875 365.765 268.875C321.225 268.875 294.535 277.205 294.535 303.385C294.535 330.075 315.105 338.235 366.955 340.615C405.545 342.485 412.345 344.185 412.345 354.045C412.345 363.395 402.655 366.965 370.525 366.965C331.765 366.965 321.565 361.185 321.565 348.605H290.965Z" fill="#E2E2E2"/>
<path d="M484.632 270.575H454.032V389.575H484.632V270.575Z" fill="#E2E2E2"/>
<path d="M568.442 345.715H612.812C612.132 354.725 600.232 367.645 570.652 367.645C531.042 367.645 525.432 345.205 525.432 330.755C525.432 316.475 530.872 294.545 570.652 294.545C602.952 294.545 611.112 307.975 612.812 316.985H643.922C642.052 287.405 618.252 268.875 570.652 268.875C521.692 268.875 494.832 290.635 494.832 330.075C494.832 369.515 521.692 391.275 565.552 391.275C590.882 391.275 608.732 383.115 619.952 370.875L621.312 389.575H643.922V325.825H568.442V345.715Z" fill="#E2E2E2"/>
<path d="M454.519 405.561V494.981L373.259 405.561H331.779V524.561H362.379V435.311L443.469 524.561H485.119V405.561H454.519Z" fill="#E2E2E2"/>
<path d="M624.591 429.871V405.561H498.791V524.561H624.591V500.251H529.391V476.111H624.591V454.011H529.391V429.871H624.591Z" fill="#E2E2E2"/>
<path d="M774.814 449.251C774.814 422.731 756.284 405.561 729.254 405.561H635.754V524.561H666.354V492.771H715.654L734.864 524.561H770.904L748.974 489.201C764.954 482.911 774.814 468.631 774.814 449.251ZM666.354 431.231H720.754C729.934 431.231 744.214 431.231 744.214 449.251C744.214 467.101 729.934 467.101 720.754 467.101H666.354V431.231Z" fill="#E2E2E2"/>
</svg>
